<svg viewBox="0 0 403 44" fill="none" xmlns="http://www.w3.org/2000/svg"><path d="M0 43.694V0h8.097l20.001 14.178h.303L48.4 0H56.5v43.694H46.83V12.222l-13.717 9.29v22.182h-9.668V21.511L9.667 12.222v31.472H0ZM80.016 44c-5.398 0-9.607-1.344-12.629-4.033-3.021-2.73-4.532-6.723-4.532-11.978 0-5.296 1.511-9.289 4.532-11.978 3.022-2.73 7.231-4.094 12.63-4.094h15.106c3.545 0 6.244.855 8.097 2.566 1.894 1.67 2.84 4.074 2.84 7.211 0 6.397-3.645 9.595-10.937 9.595H72.282c.846 3.789 3.424 5.683 7.734 5.683h24.473V44H80.016Zm0-25.056c-4.149 0-6.707 1.773-7.674 5.317H94.7c.806 0 1.43-.244 1.873-.733.484-.49.726-1.161.726-2.017 0-1.711-.867-2.567-2.599-2.567H80.016ZM128.883 43.694c-3.505 0-6.083-.876-7.735-2.627-1.652-1.793-2.477-4.136-2.477-7.028V19.25h-9.004v-7.028h9.004V2.567h8.761v9.655h12.932v7.028h-12.932v13.689c0 2.485 1.209 3.728 3.626 3.728h10.998v7.027h-13.173ZM154.839 43.694c-3.263 0-5.761-.835-7.493-2.505-1.732-1.67-2.599-4.054-2.599-7.15 0-3.056.867-5.419 2.599-7.089 1.732-1.67 4.23-2.506 7.493-2.506h23.203v-1.466c0-2.485-1.208-3.728-3.625-3.728h-25.621v-7.028h27.917c3.666 0 6.264.856 7.795 2.567 1.531 1.67 2.296 4.033 2.296 7.089v21.816h-31.965Zm1.571-7.027h21.632v-5.195H156.41c-.766 0-1.37.245-1.813.734-.403.448-.604 1.059-.604 1.833s.201 1.405.604 1.894c.443.49 1.047.734 1.813.734ZM194.38 43.694V0h36.195c4.472 0 7.936 1.14 10.394 3.422 2.497 2.282 3.746 5.745 3.746 10.39 0 4.644-1.249 8.107-3.746 10.388-2.458 2.282-5.922 3.422-10.394 3.422h-26.527v16.072h-9.668Zm35.047-35.75h-25.379v11.673l25.379.06c1.773 0 3.122-.447 4.049-1.344.967-.896 1.45-2.403 1.45-4.522 0-2.16-.483-3.667-1.45-4.522-.927-.896-2.276-1.345-4.049-1.345ZM249.828 43.694V12.222h23.808c3.505 0 6.083.896 7.735 2.69 1.652 1.751 2.477 4.073 2.477 6.966v6.539h-8.882v-5.44c0-2.444-1.209-3.666-3.626-3.666h-12.629v24.383h-8.883ZM288.657 43.694V12.222h8.762v31.472h-8.762Zm-.06-36.666V.122h8.882v6.906h-8.882ZM304.059 43.694V12.222h40.304c3.545 0 6.144.896 7.795 2.69 1.652 1.751 2.478 4.073 2.478 6.966v21.816h-8.762V22.978c0-2.485-1.249-3.728-3.747-3.728h-8.399v24.444h-8.762V19.25H312.82v24.444h-8.761ZM376.956 44c-5.398 0-9.608-1.344-12.629-4.033-3.021-2.73-4.532-6.723-4.532-11.978 0-5.296 1.511-9.289 4.532-11.978 3.021-2.73 7.231-4.094 12.629-4.094h15.107c3.545 0 6.244.855 8.097 2.566 1.893 1.67 2.84 4.074 2.84 7.211 0 6.397-3.646 9.595-10.937 9.595h-22.841c.846 3.789 3.424 5.683 7.734 5.683h24.473V44h-24.473Zm0-25.056c-4.149 0-6.707 1.773-7.674 5.317h22.358c.805 0 1.43-.244 1.873-.733.483-.49.725-1.161.725-2.017 0-1.711-.866-2.567-2.598-2.567h-14.684Z" fill="#CECECE"/></svg>
