<svg xmlns="http://www.w3.org/2000/svg" xmlns:xlink="http://www.w3.org/1999/xlink" width="25" height="36"><defs><path id="a" d="M.001.232h24.997V36H.001z"/></defs><g fill="none" fill-rule="evenodd"><path fill="none" d="M-11-4h44v44h-44z"/><path d="M8.733 10.165c.04-1.108.766-2.027 1.743-2.307a2.54 2.54 0 0 1 .628-.089c.16 0 .314.017.463.044 1.088.2 1.9 1.092 1.9 2.16v8.88h1.26c2.943-1.39 5-4.45 5-8.025a9.01 9.01 0 0 0-1.9-5.56l-.43-.5a8.562 8.562 0 0 0-2.712-2c-1.057-.49-2.226-.77-3.46-.77s-2.4.278-3.46.77a8.52 8.52 0 0 0-2.71 2l-.43.5a9.01 9.01 0 0 0-1.9 5.56 9.04 9.04 0 0 0 .094 1.305c.03.21.088.41.13.617l.136.624c.083.286.196.56.305.832l.124.333a8.78 8.78 0 0 0 .509.953l.065.122a8.69 8.69 0 0 0 3.521 3.191l1.11.537v-9.178z" fill-opacity=".5" fill="#e4e4e4"/><path d="m22.94 25.218-2.76 7.74c-.172.485-.676.8-1.253.8H12.24c-1.606 0-3.092-.68-3.98-1.82-1.592-2.048-3.647-3.822-6.11-5.27-.095-.055-.15-.137-.152-.23-.004-.1.046-.196.193-.297a3.35 3.35 0 0 1 1.926-.6 3.43 3.43 0 0 1 .691.069l4.922.994V9.972c0-.663.615-1.203 1.37-1.203s1.373.54 1.373 1.203v9.882h2.953c.273 0 .533.073.757.21l6.257 3.874c.027.017.045.042.07.06.41.296.586.77.426 1.22M4.1 15.614c-.024-.04-.042-.083-.065-.122a8.69 8.69 0 0 1-.509-.953c-.048-.107-.08-.223-.124-.333l-.305-.832c-.058-.202-.09-.416-.136-.624l-.13-.617a9.03 9.03 0 0 1-.094-1.305c0-2.107.714-4.04 1.9-5.56l.43-.5a8.509 8.509 0 0 1 2.71-2c1.058-.49 2.226-.77 3.46-.77s2.402.28 3.46.77a8.506 8.506 0 0 1 2.712 2l.428.5a9 9 0 0 1 1.901 5.559c0 3.577-2.056 6.636-5 8.026h-1.26V9.971c0-1.067-.822-1.96-1.9-2.16a2.515 2.515 0 0 0-.463-.044c-.22 0-.427.037-.628.09-.977.28-1.703 1.198-1.743 2.306v9.178l-1.11-.537a8.538 8.538 0 0 1-3.534-3.19m18.87 7.476-6.256-3.874c-.102-.063-.218-.098-.33-.144 2.683-1.8 4.354-4.855 4.354-8.243 0-.486-.037-.964-.104-1.43a9.97 9.97 0 0 0-1.57-4.128l-.295-.408-.066-.092a10.05 10.05 0 0 0-.949-1.078 9.703 9.703 0 0 0-1.094-.922 9.298 9.298 0 0 0-3.94-1.65l-.732-.088-.748-.03a9.29 9.29 0 0 0-1.482.119 9.298 9.298 0 0 0-3.94 1.65 9.33 9.33 0 0 0-.813.686 9.59 9.59 0 0 0-.845.877l-.385.437-.36.5-.288.468-.418.778-.04.09a10.02 10.02 0 0 0-.93 4.222c0 3.832 2.182 7.342 5.56 8.938l1.437.68v4.946L5 24.64a4.44 4.44 0 0 0-.888-.086c-.017 0-.034.003-.05.003a4.389 4.389 0 0 0-.75.08 5.08 5.08 0 0 0-.237.056 4.254 4.254 0 0 0-.568.18c-.075.03-.15.057-.225.1-.25.114-.494.244-.723.405A1.31 1.31 0 0 0 .993 26.5a1.28 1.28 0 0 0 .645 1.051C4 28.925 5.96 30.614 7.473 32.563a5.06 5.06 0 0 0 .434.491c1.086 1.082 2.656 1.713 4.326 1.715h6.697a2.37 2.37 0 0 0 1.858-.872c.142-.18.256-.38.336-.602l2.757-7.74c.094-.26.13-.53.112-.794s-.088-.52-.203-.76a2.19 2.19 0 0 0-.821-.91" fill-opacity=".6" fill="#000"/><path d="m22.444 23.94-6.257-3.874a1.45 1.45 0 0 0-.757-.211h-2.953v-9.88c0-.663-.616-1.203-1.373-1.203s-1.37.54-1.37 1.203v16.643l-4.922-.994a3.44 3.44 0 0 0-.692-.069 3.35 3.35 0 0 0-1.925.598c-.147.102-.198.198-.194.298.004.094.058.176.153.23 2.462 1.448 4.517 3.22 6.11 5.27.887 1.14 2.373 1.82 3.98 1.82h6.686c.577 0 1.08-.326 1.253-.8l2.76-7.74c.16-.448-.017-.923-.426-1.22-.025-.02-.043-.043-.07-.06z" fill="#fff"/><g transform="translate(0 -.231)"><mask id="b" fill="#fff"><use xlink:href="#a"/></mask><path d="M23.993 24.992a1.96 1.96 0 0 1-.111.794l-2.758 7.74c-.08.22-.194.423-.336.602-.427.54-1.11.87-1.857.872h-6.698c-1.67-.002-3.24-.633-4.326-1.715a5.313 5.313 0 0 1-.434-.49C5.96 30.846 4 29.157 1.646 27.773a1.283 1.283 0 0 1-.645-1.05 1.31 1.31 0 0 1 .566-1.122 4.56 4.56 0 0 1 .723-.405l.225-.1a4.3 4.3 0 0 1 .568-.18l.237-.056c.248-.046.5-.075.75-.08.018 0 .034-.003.05-.003.303-.001.597.027.89.086l3.722.752V20.68L7.296 20c-3.377-1.596-5.56-5.106-5.56-8.938 0-1.51.336-2.94.93-4.222.015-.03.025-.06.04-.09.127-.267.268-.525.418-.778a8.49 8.49 0 0 1 .288-.468c.063-.095.133-.186.2-.277L3.773 5c.118-.155.26-.29.385-.437.266-.3.544-.604.845-.877A9.33 9.33 0 0 1 5.816 3a9.34 9.34 0 0 1 3.941-1.65 9.27 9.27 0 0 1 1.481-.119 8.82 8.82 0 0 1 .748.031c.247.02.49.05.733.088A9.293 9.293 0 0 1 16.659 3c.387.28.752.588 1.094.922A9.94 9.94 0 0 1 18.702 5l.066.092c.102.133.203.268.295.408a9.97 9.97 0 0 1 1.571 4.128c.066.467.103.945.103 1.43 0 3.388-1.67 6.453-4.353 8.243.11.046.227.08.33.144l6.256 3.874c.37.23.645.55.82.9.115.24.185.498.203.76m.697-1.195a3.169 3.169 0 0 0-1.194-1.326l-5.323-3.297c2.255-2.037 3.564-4.97 3.564-8.114 0-2.19-.637-4.304-1.84-6.114-.126-.188-.26-.37-.4-.552a10.475 10.475 0 0 0-2.252-2.204A10.292 10.292 0 0 0 11.238.232 10.21 10.21 0 0 0 5.23 2.19a10.794 10.794 0 0 0-2.253 2.205c-.136.18-.272.363-.398.55A11 11 0 0 0 .737 11.06c0 4.218 2.407 8.08 6.133 9.842l.863.41v3.092l-2.525-.51a5.583 5.583 0 0 0-1.076-.106 5.45 5.45 0 0 0-3.14.996 2.307 2.307 0 0 0-.99 1.983 2.28 2.28 0 0 0 1.138 1.872c2.24 1.318 4.106 2.923 5.543 4.772 1.26 1.62 3.333 2.59 5.55 2.592h6.698c1.42-.001 2.68-.86 3.134-2.138l2.76-7.74a2.988 2.988 0 0 0-.134-2.325" fill-opacity=".05" fill="#000" mask="url(#b)"/></g></g></svg>