<svg width="245" height="244" fill="none" xmlns="http://www.w3.org/2000/svg"><path opacity=".92" d="M225.626 119.846c-7.278-9.758-15.937-19.194-27.032-26.001-11.398-6.995-24.779-11.208-37.919-13.826-5.614-1.12-11.355-1.794-17.085-1.705-1.877.03-14.167 2.77-14.885 2.156C93.241 50.237 49.397 41.083 22.221 60.98c-32.658 23.911-28.876 80.729 8.451 126.903 12.484 15.452 27.445 29.226 44.88 38.801 17.721 9.728 38.88 12.275 58.813 13.318 32.102 1.675 71.675.702 93.89-26.304 10.141-12.334 14.865-27.865 14.462-43.704-.484-19.135-6.59-36.066-17.091-50.148Z" fill="#6AFF0F"/><path d="M169.694 101.409c-3.371 0-6.687-1.065-9.908-3.187-4.709-3.104-8.235-7.864-10.362-11.312l.926-.57c4.056 6.572 12.616 17.017 24.378 13.15l.344 1.03c-1.734.582-3.55.882-5.378.889Z" fill="#0D83CB"/><path d="M75.552 226.678c17.721 9.728 38.88 12.276 58.813 13.318 15.844.828 33.517 1.008 50.007-2.266.887-5.235 2.107-18.235-5.265-27.652-9.436-12.052-13.922-11.743-23.666-13.906-9.744-2.163-48.415-4.943-58.783 0-10.368 4.943-15.777 11.28-18.407 17.615-1.576 3.797-3.04 7.428-3.061 12.691.123.067.242.135.362.2Z" fill="url(#a)"/><path d="M214.678 213.578c-3.437-12.018-3.539-15.047-6.976-21.509-3.438-6.462-4.853-13.531-6.167-14.844-1.315-1.313-1.719-1.717-5.257-1.616-3.537.102-17.59 2.121-20.725 2.323-3.135.203-20.218 1.817-22.847 2.019-2.628.203-4.9.23-4.9.23s-2.021-6.07-2.707-7.648c-.897-2.069-2.2-6.921-2.805-8.133-.605-1.212 1.614-19.203 2.525-20.616.808-.91 4.024-4.73 7.812-10.287.607-2.019-4.172-5.652-5.99-10.301 1.313-3.53-10.212-26.46-11.724-27.566-1.513-1.105-10.758-1.107-16.955.962-8.023 3.159-19.36 7.092-20.904 8.24-1.543 1.149-4.71 3.311-7.102 10.94-2.393 7.63-6.703 31.75-6.703 31.75s-1.908 6.277.098 8.819c2.005 2.543 6.404 3.777 8.485.617 2.082-3.161 9.315-19.229 9.315-19.229s4.011 8.014 4.396 11.098c.385 3.083.464 9.94-1.156 12.945-1.621 3.004-6.257 10.795-7.65 13.108-1.391 2.312-4.705 7.937-5.168 14.025-.462 6.088 2.16 12.253 3.472 14.332 1.312 2.079 16.742 3.854 25.844-.23 4.399-2.081 15.109-2.668 20.934-2.035 5.825.634 22.114 3.565 31.865.782 9.751-2.783 16.21-4.553 16.21-4.553-1.404 5.463 3.247 17.177 9.009 24.55a267.333 267.333 0 0 1 6.849 9.163 67.857 67.857 0 0 0 12.417-7.496 92.155 92.155 0 0 1-3.495-9.84Z" fill="#F7C1CE"/><path d="M106.101 108.968c-1.626-2.638-4.923-4.668-8.187-4.618-.3.137-.587.299-.86.484-1.546 1.156-4.709 3.31-7.102 10.94-2.392 7.63-6.703 31.75-6.703 31.75s-1.583 6.276.423 8.819c2.006 2.543 6.404 3.777 8.487.616 2.084-3.16 8.988-19.228 8.988-19.228s.286.571.713 1.468c1.914-4.232 4.246-8.308 5.606-12.868 1.758-5.693 1.758-12.071-1.365-17.363Z" fill="url(#b)"/><path opacity=".8" d="M98.626 104.372a8.053 8.053 0 0 0-.712-.022c-.3.137-.587.299-.86.484-1.546 1.155-4.709 3.31-7.102 10.94-2.179 6.951-5.959 27.6-6.614 31.207l.368-.941s3.266-11.992 3.832-14.959c.436-2.307 2.323-8.625 3.528-12.876 1.466-5.18 4.1-9.73 7.56-13.833Z" fill="#F7DEE4"/><path d="M106.859 117.262c-.755 3.434-12.891 21.954-13.778 26.612-2.116-3.091-5.985-2.538-8.63-2.368-.456 2.452-1.204 6.024-1.204 6.024s-1.663 6.524.344 9.064c2.008 2.539 6.647 2.719 8.73-.44s8.826-18.411 8.826-18.411.285.571.713 1.468c1.695-3.748 3.717-7.374 5.102-11.321.229-6.904.206-12.034-.103-10.628Z" fill="#F7B2C2"/><path d="M214.678 213.578c-3.437-12.018-3.539-15.047-6.976-21.509-3.438-6.462-4.853-13.531-6.167-14.844-1.315-1.313-1.719-1.717-5.257-1.616-3.537.102-17.59 2.121-20.725 2.323-3.135.203-20.218 1.817-22.847 2.019-2.628.203-4.9.23-4.9.23s-2.021-6.07-2.707-7.648c-.897-2.069-2.2-6.921-2.805-8.133-.605-1.212 1.614-19.203 2.525-20.616.808-.91 4.024-4.73 7.812-10.287.607-2.019-4.172-5.652-5.99-10.301 1.313-3.53-10.212-26.46-11.724-27.566-1.513-1.105-10.758-1.107-16.955.962-7.133 2.807-16.882 6.227-20.044 7.763 3.265-.05 6.56 1.98 8.186 4.618 3.123 5.292 3.123 11.675 1.358 17.368-1.359 4.56-3.692 8.636-5.605 12.868 1.171 2.462 3.402 7.37 3.683 9.63.387 3.081.465 9.94-1.156 12.945-1.621 3.004-6.25 10.783-7.642 13.096-1.392 2.312-4.706 7.937-5.169 14.025-.462 6.088 2.16 12.253 3.472 14.332 1.312 2.079 16.742 3.854 25.844-.23 4.399-2.081 15.109-2.668 20.934-2.035 5.825.634 22.114 3.565 31.865.782 9.751-2.783 16.21-4.553 16.21-4.553-1.404 5.463 3.247 17.177 9.009 24.55a267.333 267.333 0 0 1 6.849 9.163 67.857 67.857 0 0 0 12.417-7.496 92.155 92.155 0 0 1-3.495-9.84Z" fill="#F7C1CE"/><path d="M123.896 121.04c7.422 0 14.716-1.106 21.934-2.737-2.579-7.898-9.743-21.823-10.917-22.683-1.516-1.11-10.758-1.108-16.954.961-3.537 1.393-7.75 2.89-11.487 4.229 5.672 5.987 10.203 12.231 15.387 18.738.543.683 1.358 1.492 2.037 1.492Z" fill="url(#c)"/><path d="M135.432 96.24a3.005 3.005 0 0 0-.515-.615c-1.516-1.11-10.758-1.107-16.955.961-3.537 1.393-7.75 2.89-11.486 4.229.206.218.407.436.61.654 3.982-1.392 8.181-2.987 11.244-3.899 5.562-1.658 11.387-1.495 17.102-1.33Z" fill="#F7DEE4"/><path d="M214.678 213.577c-3.437-12.018-3.539-15.046-6.976-21.508-3.438-6.462-4.853-13.531-6.167-14.844-1.315-1.313-1.719-1.717-5.257-1.616-3.537.102-17.59 2.121-20.725 2.323-3.135.203-20.218 1.817-22.846 2.019-2.629.203-3.943.203-3.943.203a4.498 4.498 0 0 1-1.666-1.914c-6.299 6.209-9.491 14.007-12.128 22.519a54.06 54.06 0 0 1 6.853.222c5.825.632 22.114 3.564 31.865.781 9.751-2.783 16.21-4.553 16.21-4.553-1.404 5.463 3.247 17.177 9.009 24.551a265.382 265.382 0 0 1 6.849 9.163 67.969 67.969 0 0 0 12.417-7.496 92.322 92.322 0 0 1-3.495-9.85Z" fill="#000"/><path d="M110.553 103.871a29.07 29.07 0 0 1 4.19-.282c1.394 0 2.784.054 4.168.172 1.384.118 2.767.273 4.137.479.172.027.315.041.562.094.204.051.401.127.586.227.333.182.641.404.918.663.265.244.511.508.736.789.225.277.428.57.607.878a17.095 17.095 0 0 0-1.735-1.132 4.798 4.798 0 0 0-.876-.381 1.95 1.95 0 0 0-.408-.079h-.472a58.04 58.04 0 0 1-4.161-.195 69.827 69.827 0 0 1-4.126-.455 39.82 39.82 0 0 1-4.126-.778Z" fill="#F598AE"/><path opacity=".48" d="M199.005 215.44c-3.299-6.572-5.361-13.077-5.042-14.995.53-3.172.53-7.295-4.022-6.352-10.416 2.177-21.098 3.375-31.746 2.857-.99-.048-2.013-.119-2.895-.57-1.743-.891-2.779-4.34-3.455-6.009a44.919 44.919 0 0 1-2.528-8.595c-.107-.573-.134-1.305.376-1.588a3.188 3.188 0 0 1-2.698-2.015 51.09 51.09 0 0 0-11.86 22.48c6.753.076 13.438 1.245 20.16 1.889 7.647.729 14.694.247 22.078-1.846 4.17-1.182 8.345-2.351 12.524-3.506-1.064 4.139 1.349 11.867 5.087 18.576a18.703 18.703 0 0 0 4.021-.326Z" fill="#442173"/><path d="M144.262 147.651c6.153.255 17.436 2.048 20.256 1.921 2.821-.127 6.922-.258 6.922-.258l-.383 6.66s-19.103 2.561-22.821 3.458c-2.181.536-4.42.794-6.666.767l2.692-12.548Z" fill="#EDB4C2"/><path d="m143.683 150.36-2.109 9.834a26.58 26.58 0 0 0 6.665-.768c3.718-.896 22.821-3.457 22.821-3.457l.316-5.494c-9.24.276-18.477.389-27.693-.115Z" fill="#EDB4C2"/><path d="m142.076 157.835-.506 2.359a26.542 26.542 0 0 0 6.666-.768c3.718-.896 22.821-3.457 22.821-3.457l.067-1.157c-9.394.98-18.677 2.127-28.137 3.006-.298 0-.605 0-.911.017Z" fill="#E69FB0"/><path d="M174.654 152.737a9.733 9.733 0 0 0-.361-2.645v-4.739h-5.344c-2.87.182-4.836 3.336-4.836 7.295s1.966 7.266 4.838 7.455v.008h5.351v-4.735a9.72 9.72 0 0 0 .352-2.639Z" fill="url(#d)"/><path d="M174.547 160.122c2.265 0 4.1-3.306 4.1-7.385 0-4.078-1.835-7.384-4.1-7.384-2.264 0-4.099 3.306-4.099 7.384 0 4.079 1.835 7.385 4.099 7.385Z" fill="#5CD0FF"/><path d="M173.762 148.792s1.954-1.202 2.932-2.103c.978-.901 3.383-2.328 4.963-2.628 1.579-.301 8.937 0 9.625 0 .687 0 1.504.075 1.579.527.076.451-.601 2.177-2.932 2.702-2.331.525-4.661.225-5.112.977-.45.752 3.759 3.454 7.592 4.129 3.833.675 5.415-.675 6.917-.826 1.502-.151-1.277 3.229-1.277 3.229s3.833-1.05 4.735-.977c.903.074.452.677-.149 1.127-.602.45-2.106 1.653-2.556 1.954-.451.3-5.488 2.027-6.016 2.027-.528 0-16.014-3.004-17.668-2.853-1.653.151-2.331 1.05-2.331 1.05s-2.456-4.075-.302-8.335Z" fill="url(#e)"/><path d="M184.011 149.405c.598.819 1.48.859 2.336.553-1.088-.713-1.719-1.374-1.536-1.691a.647.647 0 0 1 .216-.213c-.78.127-1.468.785-1.016 1.351Z" fill="#A383DE"/><path d="M198.042 154.799s2.781-3.378 1.277-3.229c-1.16.117-2.368.948-4.624 1.01a28.445 28.445 0 0 1-6.241 5.368c1.903.343 3.574.647 4.588.822 1.736-1.291 3.391-2.721 5.081-3.993l-.081.022Z" fill="#B99DEB"/><path d="M202.777 153.831c-.825-.068-4.101.805-4.654.955-1.69 1.272-3.345 2.702-5.081 3.993.576.1.942.16 1.016.16.526 0 5.562-1.727 6.016-2.028.453-.3 1.954-1.502 2.555-1.954.602-.451 1.051-1.059.148-1.126Z" fill="#B99DEB"/><path d="M191.33 156.578c2.547-.216 2.205.373 3.914-1.116 1.708-1.488 4.008-2.918 6.213-2.7 1.15.154-.931 1.706-1.801 2.451-.705.603-1.404 1.202-2.107 1.815-.418.357-.834.718-1.255 1.071-.383.321-.81.828-1.281 1.003a1.95 1.95 0 0 1-.563.086c-2.738.137-5.446 0-8.184 0l5.064-2.61Z" fill="#B496EB"/><path d="M193.102 152.535c-.067-.012-3.565-.723-5.672-1.889-.777-.429-2.453-1.646-3.307-2.273-1.081.373-1.947.859-2.738 1.111a9.665 9.665 0 0 1-1.767.343c-1.391.172-2.277.773-3.333 1.319 0 0 6.36 4.922 6.15 5.736 2.133.36 4.498.783 6.532 1.15 1.718-.79 2.71-2.403 4.396-3.985.485-.44.918-.935 1.289-1.474-.649.024-.694.113-1.55-.038Z" fill="#A383DE"/><path d="M173.308 151.943s2.857-1.127 4.435-.977c1.578.149 4.36 2.027 6.39 3.979 1.128 1.202 3.008 1.202 4.285.601 1.277-.601 4.586-3.605 6.391-3.605 1.279 0 .978.601.978.601s-2.556 2.252-3.084 3.154c-.527.901-2.255 2.403-4.359 3.229-2.103.826-3.384 1.202-5.639.45-2.255-.752-6.14-2.601-8.646-2.253 0 .006-1.21-2.604-.751-5.179Z" fill="#C8AFF7"/><path d="M179.623 149.822c2.063-.243 4.201-1.102 3.513-3.37 1.173.701 1.269 1.015 1.363 1.545.189 1.08-.216 2.684-4.876 1.825Z" fill="#9C78DE"/><path d="M148.951 180.142h-.187c-.611 0-2.321-5.346-2.541-6.045a63.733 63.733 0 0 0-3.929-9.709c-.607-1.212 2.616-20.243 3.525-21.656.81-.91 6.514-3.446 8.233-8.696.607-2.019-5.402-7.966-7.219-12.612 1.319-3.53-10.404-24.688-11.916-25.794a2.739 2.739 0 0 0-.906-.362c1.652 3.507 5.454 12.454 5.105 19.819-5.937.62-15.597 1.24-15.597 1.24s-6.703-12.569-15.397-16.096c-5.438 1.947-10.103 3.863-11.064 4.584-.902.677-2.466 1.568-3.953 3.894 2.43-2.385 4.984-2.285 7.545-.458 1.473 1.05 2.469 2.666 3.081 4.369 1.531 4.27 2.096 8.945.914 13.369a222.869 222.869 0 0 1-1.623 5.801 244.359 244.359 0 0 1-.964 3.199c-.141.456-1.072 2.427-.876 2.821.385.777 3.998 8.11 4.362 11.029.387 3.081.464 9.94-1.157 12.945-1.621 3.004-6.253 10.783-7.645 13.096-1.392 2.312-4.706 7.937-5.169 14.025-.462 6.088 2.16 12.253 3.472 14.332.516.817 3.203 1.586 6.829 1.973l10.647-.066c2.983-.359 5.907-1.03 8.368-2.137 4.399-2.081 15.109-2.668 20.934-2.035.318.035.669.076 1.047.124-.186-4.943.443-13.73 6.081-20.954Z" fill="url(#f)"/><path d="M108.119 100.226c-5.439 1.947-10.103 3.765-11.064 4.484-.903.677-2.467 1.668-3.954 3.994 1.75-1.717 1.375-2.68 3.215-2.105 3.595-2.501 8.965-4.091 13.063-5.812-.703-.408-.535-.267-1.26-.561Z" fill="#5CD0FF"/><path d="M139.057 114.543c-5.242.546-13.492 1.1-15.244 1.215-1.132-1.888-7.391-11.88-14.898-15.819l-1.432.516c8.25 3.665 15.49 16.014 15.564 16.138l.172.29.343-.022c.098 0 9.739-.627 15.619-1.242l-.124-1.076Z" fill="#5CD0FF"/><path d="M126.051 122.499c.483-.071 10.964-.859 10.964-.859l-4.109 7.146-6.855-6.287Z" fill="url(#g)"/><path d="M104.282 166.763c2.211-2.838 4.105-11.196 3.316-15.77-.7-4.051-2.269-7.981-6.129-14.526-.219.582-.391 1.147-.294 1.337.385.778 3.998 8.111 4.362 11.03.387 3.081.464 9.94-1.157 12.945-1.621 3.004-6.246 10.788-7.638 13.101-1.392 2.312-4.706 7.937-5.169 14.025-.225 2.965.282 5.945 1.013 8.467.97-.606 1.59-1.39 1.275-2.381-.947-2.996.474-9.614 1.263-12.457.79-2.844 6.948-12.932 9.158-15.771ZM146.223 174.1a63.774 63.774 0 0 0-3.929-9.709c-.607-1.212 2.616-20.243 3.525-21.656.81-.91 6.604-3.298 8.323-8.548.606-2.021-5.492-8.114-7.312-12.76.571-1.533-1.313-6.388-3.754-11.484l-4.378-.578c.207 1.171.343 2.354.409 3.542 3.424 5.966 9.772 17.781 12.087 20.464 1.055 2.232-8.422 8.564-8.948 9.615-.526 1.05-2.46 22.298-2.197 23.615.187.931 5.096 9.723 7.974 14.823.294-.431.603-.858.933-1.279h-.187c-.617 0-2.326-5.346-2.546-6.045Z" fill="#5CD0FF"/><path d="M142.294 164.391c-.322-.64.376-5.78 1.241-10.685-3.99.822-12.138 2.247-19.342 1.888-8.702-.425-14.065-2.747-18.491-4.87.198 3.433.019 8.562-1.322 11.048-.404.75-.995 1.795-1.676 2.978 2.603.859 7.011 2.27 9.954 3.063 4.404 1.188 9.787 2.026 17.685.908 5.101-.721 9.734-2.403 12.375-3.504-.18-.347-.33-.633-.424-.826Z" fill="#000"/><path d="M142.294 164.391c-.322-.64.376-5.78 1.241-10.685-.777.159-1.719.343-2.769.532-.708 3.949-1.291 8.049-.535 11.953.951-.344 1.79-.677 2.489-.967-.182-.354-.332-.64-.426-.833Z" fill="#545454"/><path d="m109.287 163.974-1.906-.764.695-8.332 1.906.764-.695 8.332Z" fill="url(#h)"/><path d="m114.31 165.48-1.961-.486.584-7.027 1.963.484-.586 7.029Z" fill="url(#i)"/><path d="m119.444 165.647-1.906-.206.309-3.721 1.906.206-.309 3.721Z" fill="url(#j)"/><path d="M100.64 108.249c.088.064.172.13.261.199 1.547 1.238 2.47 3.09 3.108 4.962 1.031 3.02 1.085 6.309.844 9.482-.239 3.133-.957 5.918-1.837 8.893a244.408 244.408 0 0 1-.965 3.199c-.141.456-1.072 2.427-.876 2.821.079.161.297.602.594 1.225-.108-.228.633-1.555.738-1.821a74.164 74.164 0 0 0 2.461-7.311c.997-3.531 1.593-7.106 1.571-10.771a24.956 24.956 0 0 0-.828-5.88c-1.08-4.292-4.755-8.756-9.626-7.793a12.82 12.82 0 0 0-2.992 3.25c2.367-2.213 5.14-2.179 7.547-.455Z" fill="#5CD0FF"/><path d="M89.305 159.064c2.69-.879 3.46-4.388 2.875-7.382-.406-2.079-1.169-4.258-2.386-6.009-2.392-3.434-7.769-3.7-10.959-6.337-2.874-2.363-10.78-10.263-10.78-10.263l-6.422 6.216s3.46 3.851 6.723 7.702c4.91 5.796 10.405 14.806 18.582 16.188.786.155 1.599.116 2.367-.115Z" fill="#F7C1CE"/><path d="M35.667 120.555c-2.877-.161-4.397-.053-4.668.598-.272.65.326 1.138 1.466 1.246 1.14.108 5.481 1.731 5.481 1.731l-2.279-3.575Z" fill="#B99DEB"/><path d="M35.992 118.008c-3.799-1.192-4.44-1.982-5.426-1.084-.598.541 7.055 7.644 7.815 8.403.76.758 1.683 1.788 4.342 1.409-.923-3.307-3.854-6.181-4.288-6.505-.435-.325-2.443-2.223-2.443-2.223Z" fill="#B496EB"/><path d="M70.946 127.675c-.022-.027-.048-.053-.072-.079l.017-.015-4.333-4.344-11.662 9.901 3.843 4.366c.037.059.077.117.12.172.065.077.136.149.213.214l.062.072c1.547 1.242 5.091.284 8.221-2.304 3.345-2.772 4.95-6.342 3.59-7.983Z" fill="url(#k)"/><path d="M66.795 123.46c1.145 1.374-.58 4.692-3.85 7.396-3.271 2.704-6.848 3.777-7.993 2.394-1.144-1.384.58-4.692 3.849-7.395 3.269-2.702 6.847-3.777 7.994-2.395Z" fill="#5CD0FF"/><path d="M58.258 131.222c2.805-.912 5.373-3.07 5.362-4.762a28.653 28.653 0 0 0-5.263-7.517c-1.402-1.403-3.647-2.033-5.54-2.242-1.892-.209-5.122-.701-6.032-1.822-.911-1.121-1.824-2.453-2.596-2.453s-1.122.211-.842 1.121c.28.91 2.174 4.905 3.859 5.885-.772 1.683-1.614 1.889-2.245 2.033-.631.144-2.807.701-4.42-1.191-.824-.969-1.605-2.263-2.643-3.012-.787-.566-3.06-.492-2.618.979.141.467.602.924.89 1.3.582.755 1.185 1.495 1.783 2.232.598.736 1.226 1.498 1.82 2.257 1.109 1.408 1.42 3.029 3.371 3.391 1.89.343 10.313-.841 12.836 1.26l2.278 2.541Z" fill="url(#l)"/><path d="M43.661 121.649a3.815 3.815 0 0 1-3.112-1.374c-.825-.968-1.606-2.262-2.644-3.011-.787-.566-3.06-.493-2.618.979.141.467.602.923.89 1.299.582.756 1.185 1.496 1.783 2.232.598.737 1.219 1.497 1.813 2.256 1.109 1.408 1.42 3.029 3.371 3.391.724.132 2.398.041 4.331 0-1.742-1.535-3.14-3.403-3.814-5.772Z" fill="#B99DEB"/><path d="M56.943 129.735c-4.36-3.284-8.89-2.232-9.866-2.254-3.252-.07-4.03-3.71-4.31-5.111-.28-1.401-.653-4.845.21-5.396.545-.344 1.193.7 1.685 1.751.491 1.051 1.875 5.386 2.805 5.676.93.29 2.234-.986 4.412-.491 2.513.563 4.643 4.374 5.064 5.825Z" fill="#B192EB"/><path d="M47.192 119.415c.344.05.651.126.962.201.311.076.612.155.916.234.305.079.609.163.915.252.317.088.629.196.933.321a3.405 3.405 0 0 1-1 .101 4.51 4.51 0 0 1-1.918-.511 3.156 3.156 0 0 1-.808-.598Z" fill="#9C6ED4"/><path opacity=".92" d="M214.678 213.578c-1.547-5.422-2.423-9.014-3.229-11.919-4.78 4.007-13.147 6.574-19.456 7.827 1.706 4.315 4.184 8.78 6.914 12.271 2.578 3.299 4.778 6.477 6.612 9.271a67.893 67.893 0 0 0 12.822-7.726c-1.437-3.212-2.755-6.555-3.663-9.724Z" fill="#78EE60"/><path d="M192.709 211.189a57.066 57.066 0 0 0 2.286 4.603c5.098-.266 13.154-1.202 18.463-6.605-.55-2.032-.997-3.751-1.397-5.267l-19.352 7.269Z" fill="url(#m)"/><path opacity=".13" d="M206.743 227.156c-2.897-3.09-5.581-7.418-7.735-11.716a18.751 18.751 0 0 1-4.019.344 46.703 46.703 0 0 0 3.921 5.971 266.354 266.354 0 0 1 6.849 9.163c.94-.443 1.87-.904 2.79-1.384a14.958 14.958 0 0 0-1.806-2.378Z" fill="#442173"/><path d="M212.851 206.918c-.543-2.05-.981-3.753-1.402-5.267-4.78 4.007-13.147 6.573-19.456 7.827a51.796 51.796 0 0 0 1.96 4.35c5.076-.25 13.28-1.674 18.898-6.91Z" fill="#78EE60"/><path d="M141.768 176.981c-4.407-4.716-10.485-3.353-13.85-2.201-3.366 1.152-24.971 8.385-32.42 12.576-1.838 1.03-3.14 2.132-3.975 3.358.097 5.46 2.342 10.645 3.522 12.523 1.312 2.081 16.742 3.854 25.845-.23 1.763-.835 4.542-1.429 7.614-1.801 7.735-3.346 15.172-6.696 15.782-7.247 1.049-.943 1.889-12.262-2.518-16.978Z" fill="#000"/><path d="M92.498 198.401c6.465 2.218 21.203 8.658 36.353 1.201 3.931 5.941 3.737 8.665 3.737 8.677-.181 2.457-4.187 3.29-6.016 3.85-3.57 1.09-7.164 2.178-10.899 2.516-10.526.943-20.35-6.096-23.175-16.244Z" fill="url(#n)"/><path d="M126.03 194.692c.734 5.556 3.782 17.922 4.196 20.017.414 2.094 4.827 10.9 5.772 13.311.945 2.41 4.747 11.415 4.747 11.415l17.704.009s-1.891-4.402-3.463-12.997c-1.573-8.595-4.617-17.292-5.98-20.121-1.363-2.83-2.623-9.328-2.833-14.25-.209-4.922-1.26-15.824-8.394-18.027-2.594-.8-5.518-.376-7.867.954-6.812 3.853-6.654 13.363-3.882 19.689Z" fill="#000"/><path d="m140.745 239.899 18.099-.155s-2.282-4.702-3.857-13.297c-1.574-8.595-4.616-17.292-5.979-20.121a11.748 11.748 0 0 1-.397-.933c-9.739 1.247-13.811 3.746-18.691 7.929.143.625.249 1.102.306 1.387.419 2.096 4.827 10.9 5.772 13.311.945 2.41 4.747 11.879 4.747 11.879Z" fill="#C0A7EE"/><path opacity=".92" d="M159.04 240.403c-.606-1.418-2.715-6.661-4.053-13.956a107.772 107.772 0 0 0-3.781-14.422 72.361 72.361 0 0 0-8.02 1.829c-3.972 1.282-8.25 2.575-11.093 5.581 1.462 3.262 3.327 7.108 3.905 8.585a5012.51 5012.51 0 0 0 4.854 12.268c5.925.218 12.033.302 18.188.115Z" fill="#78EE60"/><path d="M148.611 205.393c-9.739 1.247-13.811 3.746-18.691 7.929.143.625.249 1.102.306 1.387.163.817.933 2.652 1.867 4.732 2.922-2.493 7.219-4.438 11.186-5.723 2.652-.755 5.239-1.243 7.927-1.687-.859-2.576-1.662-4.591-2.198-5.705a11.748 11.748 0 0 1-.397-.933Z" fill="url(#o)"/><path opacity=".92" d="M150.336 209.564c-.515-1.398-.978-2.512-1.328-3.238a11.748 11.748 0 0 1-.397-.933c-9.562 1.679-13.811 3.746-18.691 7.929.143.625.249 1.102.306 1.387.102.515.435 1.403.896 2.505 5.398-3.606 7.968-4.934 10.641-5.868 1.628-.57 5.488-1.573 8.573-1.782Z" fill="#78EE60"/><path opacity=".81" d="M60.32 89.643c.031-.803-.357-7.003-.557-10.086a1.83 1.83 0 0 0-1.85-1.717l-13.62.136a1.84 1.84 0 0 1-1.77-1.285l-.934-2.985a1.834 1.834 0 0 0-1.752-1.284h-14.97a1.834 1.834 0 0 0-1.833 1.888l1.052 34.377a1.828 1.828 0 0 0 1.846 1.775l33.475-.223a1.834 1.834 0 0 0 1.82-1.922l-.907-18.524v-.15Z" fill="#fff"/><path d="M25.009 110.242s1.805.065 2.045-3.605C27.27 103.323 28.66 87.133 28.93 84a.573.573 0 0 1 .575-.525l37.18.094a.923.923 0 0 1 .915.998l-1.933 23.728a2.14 2.14 0 0 1-2.137 1.966l-38.52-.019Z" fill="#5CD0FF"/><path d="m11.09 84.38-1.01 1.01 7.298 7.29 1.011-1.01-7.298-7.29Z" fill="#0F96E8"/><path d="m17.38 84.38-7.3 7.29 1.012 1.01 7.298-7.29-1.01-1.01ZM14.863 105.854a4.127 4.127 0 0 1-3.811-2.544 4.115 4.115 0 0 1 .894-4.49 4.127 4.127 0 0 1 7.042 2.913 4.12 4.12 0 0 1-4.125 4.121Zm0-6.643a2.535 2.535 0 0 0-2.338 1.563 2.525 2.525 0 0 0 .55 2.755 2.534 2.534 0 0 0 4.321-1.789 2.528 2.528 0 0 0-2.533-2.529ZM236.68 105.252l-1.122 1.121 8.32 8.31 1.121-1.121-8.319-8.31Z" fill="#0F96E8"/><path d="m243.878 105.256-8.32 8.31 1.122 1.121 8.319-8.31-1.121-1.121ZM240.658 128.273a4.212 4.212 0 0 1-3.889-2.596 4.2 4.2 0 0 1 .913-4.582 4.216 4.216 0 0 1 4.587-.911 4.206 4.206 0 0 1 2.599 3.884 4.213 4.213 0 0 1-4.21 4.205Zm0-6.825a2.625 2.625 0 0 0-2.423 1.617 2.616 2.616 0 0 0 .569 2.856 2.622 2.622 0 0 0 4.477-1.853 2.625 2.625 0 0 0-2.623-2.62Z" fill="#0F96E8"/><path d="M189.635 95.338h13.459l3.403 3.243h22.583v7.769h-39.493s.206-11.012.048-11.012Z" fill="#9CE3FF"/><path opacity=".72" d="M229.031 115.582h-13.457l-3.403-3.245h-22.393v-8.778h39.302s-.206 12.023-.049 12.023Z" fill="#76C7E8"/><path d="m191.918 112.807.022-11.777 34.633-.105v11.873l-34.655.009Z" fill="#fff"/><path d="M229.268 105.818h-39.995v25.555h39.995v-25.555Z" fill="#5CD0FF"/><path d="M125.12 49.886c1.285-2.005 1.686-3.208 5.139-3.93 3.453-.72 7.145 3.048 8.752 6.01 1.607 2.961 8.35 27.107 10.598 32.48 2.248 5.374 7.01 15.052 14.71 18.788 4.072 1.976 8.319 1.279 8.319 1.279l-2.221 3.135s-7.563 3.643-14.88-1.03c3.548 3.605 7.271 5.403 11.86 4.184-2.152 3.892-5.758 7.145-5.758 7.145s-6.689-2.032-7.563-5.519c2.269 5.636 6.166 7.147 6.166 7.147s-9.713 7.382-21.289 4.292c.465-4.938-1.322-19.507-3.234-22.863-1.911-3.357-5.006-6.978-5.006-6.978l-5.593-44.14Z" fill="url(#p)"/><path opacity=".75" d="M131.687 80.046c1.336-.28 2.568-.72 3.866-1.13.787-.247 1.547-.489 2.196-.968.395-.305.765-.64 1.107-1.002-1.203-.126-2.286-1.156-1.502-2.433 3.905-6.352 4.215-14.756-1.301-20.314-1.011-1.016-2.235-1.768-2.922-3.066-.545-1.022-1.282-3.042-2.494-3.547-1.162-.464-1.678-.78-3.24-.558-1.031.7-1.487 1.63-2.276 2.858l3.907 30.807c.875-.27 1.786-.463 2.659-.647Z" fill="#06408F"/><path d="M154.583 113.544a17.58 17.58 0 0 1-.5-1.123c.104.399.273.778.5 1.123Z" fill="url(#q)"/><path opacity=".44" d="m139.439 76.827-10.538 2.907 1.813 14.293s3.094 3.62 5.007 6.977c1.913 3.356 3.699 17.925 3.233 22.863h.023a9.57 9.57 0 0 1 .132-.441 64.178 64.178 0 0 0 3.453-18.429c.172-4.359-.902-8.945-1.528-13.247-.712-4.919-1.595-9.934-1.595-14.923Z" fill="#06408F"/><path opacity=".75" d="M135.661 92.907c-.33-3.488-.528-10.473 1.719-13.692-3.782 3.128-5.83 8.885-6.875 13.108l.216 1.704s3.094 3.62 5.007 6.977c.344.614.688 1.605 1.031 2.843-.395-3.9-.9-8.849-1.098-10.94Z" fill="#06408F"/><path d="M136.063 79.063c-3.747 6.451-4.835 19.743-4.436 24.119-4.704 1.202-15.451-.362-17.608-2.491 1.358-1.773 3.395-5.494 2.792-12.507 9.429-.602 19.252-9.121 19.252-9.121Z" fill="#F7C1CE"/><path d="m117.213 88.153-.402.031c.429 4.98-.454 8.23-1.501 10.373.274-.067.554-.188.824-.274 1.369-3.243 1.809-6.672 1.079-10.13Z" fill="#F7DEE4"/><path d="M116.811 88.184c.218 2.544.258 3.508-.06 5.25 5.187 1.86 11.883-1.303 16.399-4.503.608-4.749 1.031-6.64 2.913-9.868 0 0-9.823 8.519-19.252 9.121Z" fill="#F79CB2"/><path d="M109.143 68.126c-.562 4.687-.375 8.905.846 13.405 1.22 4.5 2.908 9.654 6.475 11.623 3.566 1.97 14.826-3.468 19.331-12.654.939-1.968 1.313-8.343.282-11.342-1.031-3-20.27-5.805-23.273-5.53-3.003.275-3.661 4.498-3.661 4.498Z" fill="#F7C1CE"/><path d="M112.804 63.628c-3.004.28-3.661 4.498-3.661 4.498-.562 4.687-.375 8.905.846 13.405 1.22 4.5 2.908 9.654 6.475 11.623.778.431 1.926.507 3.291.268-2.31-.02-3.601-.868-5.026-2.475-1.617-1.825-2.497-4.083-3.205-6.396-2.139-6.98-1.173-14.433 1.983-20.945a6.908 6.908 0 0 0-.703.022Z" fill="#F7DEE4"/><path d="M114.119 76.216c.124.124 2.123 2.359 1.834 3.798-.289 1.438-1.078 2-1.078 2s-2.073-.5-2.442-1.403c-.37-.903.082-1.437.452-1.888.37-.452 1.234-2.507 1.234-2.507Z" fill="#F7CFDA"/><path d="M114.133 81.552a6.877 6.877 0 0 1-.712-.486 5.855 5.855 0 0 1-.937-.982 2.41 2.41 0 0 0 .172-.187c.066-.07.121-.144.172-.218l.162-.227c.202-.3.38-.617.533-.946.152-.324.281-.66.386-1.002.107-.342.183-.693.227-1.048-.191.304-.361.61-.543.907-.182.297-.364.59-.55.877-.186.287-.381.568-.581.836-.103.13-.206.261-.311.38l-.081.085-.079.078c-.026.025-.051.043-.075.065-.025.022-.04.024-.059.04l-.299.262.182.235c.191.248.4.481.626.697.23.22.487.41.765.565.272.147.56.263.859.344.296.082.588.147.889.2-.231-.166-.495-.314-.746-.475Z" fill="#F792AA"/><path d="M113.332 86.653c.576-1.202.574-2.18 1.392-2.256.698-.066.806.46 1.325.343.519-.117.592-.498 1.056-.515.955-.019 2.012 1.703 3.901 2.07a3.486 3.486 0 0 1-1.906.105c-.634-.115-1.497-.515-2.475-.46a9.403 9.403 0 0 0-2.234.364c-.571.18-1.059.349-1.059.349Z" fill="#CD52D1"/><path d="M113.842 86.509c.382.54 1.305 1.749 2.467 1.97 1.162.222 3.977-2.001 3.977-2.001s-2.451-.172-2.769-.399c-.318-.226-.875-.238-1.335-.158-.461.081-1.625.366-1.625.366l-.715.222Z" fill="#EB5EEF"/><path d="M112.94 86.843a12.923 12.923 0 0 1 2.112-.908 5.086 5.086 0 0 1 1.157-.22c.201-.013.404-.006.603.02.207.03.385.071.575.107.373.078.74.172 1.112.234.371.062.737.135 1.108.182.184.022.37.038.555.044a3.7 3.7 0 0 0 .552-.015 1.356 1.356 0 0 0 .976-.453c-.085.178-.22.328-.39.43-.17.103-.356.178-.55.222a4.26 4.26 0 0 1-1.169.091c-.385-.019-.77-.06-1.151-.122-.38-.067-.756-.14-1.126-.221-.184-.04-.376-.086-.547-.112a3.665 3.665 0 0 0-.534-.034c-.368.013-.734.06-1.093.142-.731.162-1.453.41-2.19.613Z" fill="#332A40"/><path d="M122.093 85.719a.457.457 0 0 1-.285.425.459.459 0 0 1-.628-.336.465.465 0 0 1 .196-.472.462.462 0 0 1 .717.383Z" fill="#332A40"/><path d="M112.94 86.843a12.923 12.923 0 0 1 2.112-.908 5.086 5.086 0 0 1 1.157-.22c.201-.013.404-.006.603.02.207.03.385.071.575.107.373.078.74.172 1.112.234.371.062.737.135 1.108.182.184.022.37.038.555.044a3.7 3.7 0 0 0 .552-.015 1.356 1.356 0 0 0 .976-.453c-.085.178-.22.328-.39.43-.17.103-.356.178-.55.222a4.26 4.26 0 0 1-1.169.091c-.385-.019-.77-.06-1.151-.122-.38-.067-.756-.14-1.126-.221-.184-.04-.376-.086-.547-.112a3.665 3.665 0 0 0-.534-.034c-.368.013-.734.06-1.093.142-.731.162-1.453.41-2.19.613Z" fill="#672969"/><path d="M122.093 85.719a.457.457 0 0 1-.285.425.459.459 0 0 1-.628-.336.465.465 0 0 1 .196-.472.462.462 0 0 1 .717.383Z" fill="#672969"/><path d="M123.731 52.554c.443-2.276.555-3.166 1.667-3.777 1.112-.611 3.058-.501 4.727.555 1.669 1.056.838 4.39.838 4.39l-7.232-1.168Z" fill="url(#r)"/><path d="M137.78 72.226c1.126-3.688 1.752-6.687.564-10.437-1.188-3.75-4.443-8.623-10.323-9.442-5.88-.82-12.324 1.311-17.393 8.498-.813 1.813-1.062 5.875-1.062 5.875s19.017.687 20.519 2.124c1.502 1.437 2.315 3 1.815 4.374-.5 1.376-.937 3.38.438 4.569 1.563-2.5 5.442-5.561 5.442-5.561Z" fill="url(#s)"/><path d="M124.712 52.656c-6.188.644-12.24 4.702-14.704 10.442a34.584 34.584 0 0 0-.442 3.629s19.017.687 20.519 2.124c1.502 1.437 2.315 2.999 1.815 4.374-.5 1.375-.937 3.374.438 4.562 1.565-2.5 5.444-5.561 5.444-5.561 1.126-3.688 1.751-6.687.564-10.437a15.494 15.494 0 0 0-3.06-5.442c-2.913-2.529-6.624-3.945-10.574-3.691Z" fill="url(#t)"/><path d="M128.021 52.353c-5.88-.812-12.324 1.312-17.393 8.499a10.542 10.542 0 0 0-.62 2.245c2.968-5.078 8.522-9.798 14.704-10.441 3.953-.255 7.661 1.162 10.573 3.69-1.728-1.963-4.12-3.558-7.264-3.993Z" fill="#28C0F1"/><path d="m119.963 68.581-11.121 4.701a32.24 32.24 0 0 0 .325 4.278c2.295.764 4.163 1.702 7.14 1.144 3.335-.625 11.967-2.25 11.967-2.25s1.089-4.645 4.382-6.018c3.294-1.374-12.693-1.855-12.693-1.855Z" fill="#F79CB2"/><path d="M131.163 70.073c.772 1.072 1.098 2.16.737 3.152-.502 1.374-.938 3.374.437 4.562 1.564-2.5 5.443-5.56 5.443-5.56.282-.923.531-1.8.729-2.657-2.463-.824-5.021-.942-7.346.503Z" fill="#0749A3"/><path d="m138.344 71.412.749-2.374s-3.564-4.12-7.562-6.124c-3.998-2.004-12.701-6.373-23.72-1.563-.688 1.626-2.75 9.749-2.377 14.812 4.318.937 7.257 1.562 8.008 1.624.751.062 10.761-1.312 13.89-2.313.502-1.991 4.004-7.123 11.012-4.062Z" fill="url(#u)"/><path opacity=".29" d="M107.813 61.352c-.688 1.625-2.75 9.748-2.377 14.81l1.098.238c.203-5.62.703-10.277 2.714-15.624-.474.175-.953.367-1.435.575Z" fill="#fff"/><path d="M131.823 70.858c-1.466-.898-4.785-2.53-10.366-3.194-7.013-.834-11.252-.53-15.318.296-.516 2.747-.875 5.815-.698 8.203 4.317.937 7.257 1.562 8.008 1.624.751.062 10.761-1.312 13.889-2.313.303-1.234 1.761-3.662 4.485-4.616Z" fill="#2D167A"/><path d="M130.554 71.45c-1.756-.91-4.812-2.115-9.415-2.661-6.944-.826-11.173-.536-15.198.27-.402 2.444-.658 5.03-.505 7.104 4.317.937 7.256 1.562 8.008 1.624.751.062 10.761-1.312 13.889-2.313.256-1.028 1.308-2.882 3.221-4.024Z" fill="url(#v)"/><path d="M112.572 61.915c.187 0 2.939-.438 5.316.062-2.317 2.187-3.253 3.5-3.253 3.5l-2.063-3.562ZM128.396 64.789a1.122 1.122 0 0 1-.695 1.039 1.13 1.13 0 0 1-1.227-.244 1.117 1.117 0 0 1-.244-1.226 1.123 1.123 0 0 1 1.04-.694 1.127 1.127 0 0 1 1.126 1.125ZM132.462 66.787a.87.87 0 0 1-.541.809.879.879 0 0 1-1.195-.64.876.876 0 1 1 1.736-.169ZM135.776 68.477a.753.753 0 0 1-.464.693.748.748 0 0 1-.818-.163.751.751 0 1 1 1.282-.53Z" fill="#EB5EEF"/><path d="M135.883 80.398a27.29 27.29 0 0 0-1.972 5.494c-.481 1.877-.837 3.777-1.131 5.702-.294 1.924-.515 3.85-.703 5.796-.187 1.945-.318 3.895-.464 5.878a25.047 25.047 0 0 1-.443-2.948 34.772 34.772 0 0 1-.146-2.976 37.65 37.65 0 0 1 .431-5.953c.29-1.98.776-3.927 1.451-5.811.343-.946.758-1.864 1.241-2.747a12.153 12.153 0 0 1 1.736-2.435Z" fill="#F598AE"/><path d="M133.731 79.75c2.605 1.501 6.806.482 7.757-2.574a6.449 6.449 0 0 0-.04-3.693 3.387 3.387 0 0 0-2.844-2.362c-2.118-.265-3.832.4-5.076 2.123-.688.963-2.193 3.935-1.11 5.096l1.313 1.41Z" fill="url(#w)"/><path d="M139.102 73.323c-1.671.218-3.943 1.015-4.125 2.98-.034.38.034.802.318 1.056a1.157 1.157 0 0 0 .997.21.974.974 0 0 0 .588-.308.884.884 0 0 0 .115-.772c-.019-.069-.777-1.305-.882-.987.292-.886 1.882-1.884 2.989-2.179Z" fill="#F79CB2"/><path d="M206.81 47.153c-4.985-12.085-14.48-23.126-26.034-30.294-12.702-7.88-28.821-12.215-45.407-12.215h-.232V2.472a95.424 95.424 0 0 1 24.269 3.024c8.197 2.132 15.774 5.334 22.517 9.518a70.08 70.08 0 0 1 15.827 13.585c4.761 5.503 8.484 11.467 11.069 17.723l-2.009.831ZM82.897 9.139l-11.482-.06 2.728 7.483 8.754-7.423ZM124.083 3.477 114.899 0l-.237 6.251 9.421-2.774ZM106.778 4.175 91.308 2.48l1.19 7.875 14.28-6.179ZM55.851 26.27l-1.617-1.45c1.975-2.2 5.754-5.512 9.744-7.947l1.133 1.854c-3.785 2.31-7.453 5.53-9.26 7.542ZM42.907 44.403l-2.01-.845c2.354-5.573 6.48-11.3 8.952-13.41l1.413 1.652c-2.286 1.957-6.195 7.487-8.355 12.603Z" fill="#8ADEFF"/><path d="M52.37 48.396c4.26.867 9.27 3.16 12.77 5.545-1.107 1.444-1.72 2.784-2.682 4.303a45.401 45.401 0 0 0-6.435-3.28 30.413 30.413 0 0 0-6.631-1.88 34.912 34.912 0 0 1 2.979-4.688Zm2.933-4.476c3.235.807 9.58 3.855 12.573 6.533.945-1.192 2.128-2.308 3.164-3.444-3.845-3.262-8.06-5.674-12.62-7.029-1.185 1.425-2.053 2.442-3.117 3.94Zm-12 22.221c4.224 1.1 9.233 2.327 13.428 3.566 1.01-1.991 2.59-5.246 3.483-7.039-3.53-2.374-9.36-4.414-13.093-4.69-1.182 1.842-2.863 5.497-3.817 8.163Zm164.605 7.467c-3.283-13.333-9.352-26.144-19.335-35.83-13.111-12.724-29.962-19.96-48.111-22.96a119.352 119.352 0 0 0-14.999-1.5c-24.486-.924-47.876 7.085-64.455 23.768 5.27.71 9.044 3.016 12.932 6.462 14.782-11.781 32.658-20 56.02-18.875 38.953 1.873 62.231 18.974 75.315 49.41l-6.987 1.288 10.772 12.655 5.586-15.644-6.738 1.226Z" fill="#8ADEFF"/><path d="M131.701 141.324s-10.98 3.451-14.419 2.216c-3.61-1.296-9.127-10.8-9.674-10.988 1.059 4.317 3.151 14.116 8.23 15.208 1.298.28 2.649.088 3.953-.182 4.359-.903 9.479-2.369 11.91-6.254ZM135.403 141.442a9.286 9.286 0 0 0 5.873 2.308c1.514.073 3.026-.19 4.426-.769.033-.085.072-.167.117-.246a5.86 5.86 0 0 1 .37-.36l-9.694-2.421c-.325.523-.69 1.021-1.092 1.488Z" fill="#5CD0FF"/><path opacity=".2" d="M154.987 226.454c-.056-.313-.117-.627-.172-.939l-.015-.081c-.06-.302-.12-.604-.184-.907v-.043c-.064-.31-.131-.621-.198-.93 0-.022-.01-.043-.013-.065-.066-.298-.133-.594-.201-.89l-.016-.068c-.07-.309-.141-.617-.215-.922v-.031l-.218-.895c0-.024-.012-.048-.017-.072-.153-.609-.31-1.214-.469-1.808 0-.02-.011-.041-.018-.061a79.162 79.162 0 0 0-.235-.859.113.113 0 0 0 0-.026c-.081-.295-.172-.585-.246-.873l-.01-.036c-.059-.206-.119-.411-.172-.613l-.065-.222a.252.252 0 0 0-.012-.039l-.028-.098a105.27 105.27 0 0 0-.474-1.561l-.012-.038c-.121-.386-.241-.765-.36-1.134l-.141-.433v-.024a4.297 4.297 0 0 0-.06-.182c-.062-.191-.125-.376-.187-.56 0-.019-.012-.039-.019-.058-.046-.138-.093-.271-.137-.405v-.026l-.16-.46c-.054-.151-.098-.282-.148-.421l-.01-.027c-.1-.284-.2-.558-.296-.824l-.01-.024-.081-.222-.06-.16v-.022l-.024-.067v-.008l-.093-.246-.016-.041v-.01c-.005-.013-.01-.025-.013-.038l-.121-.311-.017-.043a19.147 19.147 0 0 0-.103-.268l-.088-.218-.058-.144c0-.017-.012-.033-.019-.05v-.015l-.079-.192v-.018l-.024-.056-.011-.026c-.013-.033-.025-.065-.039-.096a.089.089 0 0 1 0-.023c-.021-.044-.038-.089-.057-.133 0-.014-.012-.03-.019-.043v-.014a7.23 7.23 0 0 0-.067-.155l-.013-.031-.021-.049c0-.016-.014-.03-.019-.045a.559.559 0 0 1-.019-.043.437.437 0 0 1-.017-.038l-.059-.13a.123.123 0 0 0-.012-.026v-.008c-.017-.042-.036-.081-.053-.119l-.019-.041-.02-.046-.021-.045-.01-.022-.018-.035-.065-.139c-.038-.079-.075-.161-.113-.245l-.047-.105-.065-.153a4.593 4.593 0 0 1-.057-.139l-.05-.124a3.921 3.921 0 0 1-.065-.171c-1.203-3.156-2.246-8.878-2.435-13.321-.21-4.926-1.26-15.824-8.395-18.027a9.47 9.47 0 0 0-3.522-.373c-2.422-.067-4.704.545-6.341 1.106-.603.208-1.801.613-3.396 1.161 7.379-.917 11.688-1.815 15.6 1.84 4.048 3.777 4.721 20.212 4.984 23.177.263 2.965 4.856 14.552 5.936 17.512.84 2.304 4.297 16.841 5.575 22.611l2.723-.022s-2.884-6.052-4.459-14.636Z" fill="#fff"/><path opacity=".48" d="M193.982 213.847c.31.608.672 1.334 1.004 1.93 1.348.03 2.695-.085 4.019-.344-.3-.595-.648-1.4-.927-1.995-1.476.184-2.714.328-4.096.409Z" fill="#442173"/><path opacity=".59" d="M83.866 244c9.652 0 17.477-10.208 17.477-22.801 0-12.593-7.825-22.802-17.477-22.802-9.652 0-17.477 10.209-17.477 22.802S74.214 244 83.866 244Z" fill="url(#x)"/><path d="M183.334 146.76c.34.337.539.79.557 1.268.003.255-.061.506-.186.728a1.726 1.726 0 0 1-.502.553c-.196.14-.41.252-.637.333-.22.079-.447.136-.677.172a4.772 4.772 0 0 1-1.376.036c.442-.115.877-.213 1.295-.344.206-.062.408-.137.605-.224.192-.082.374-.184.543-.306a1.397 1.397 0 0 0 .608-.968 2.451 2.451 0 0 0-.23-1.248Z" fill="#865EB5"/><defs><linearGradient id="a" x1="75.193" y1="216.959" x2="185.044" y2="216.959" gradientUnits="userSpaceOnUse"><stop offset=".19" stop-color="#8ADEFF"/><stop offset=".99" stop-color="#7CC8E6"/></linearGradient><linearGradient id="b" x1="79.975" y1="127.169" x2="110.386" y2="137.104" gradientUnits="userSpaceOnUse"><stop offset=".45" stop-color="#F7C1CE"/><stop offset=".5" stop-color="#F7C1CE"/><stop offset=".76" stop-color="#F7A9BC"/><stop offset=".96" stop-color="#F79CB2"/></linearGradient><linearGradient id="c" x1="108.162" y1="104.424" x2="146.898" y2="111.387" gradientUnits="userSpaceOnUse"><stop offset=".45" stop-color="#F7C1CE"/><stop offset=".74" stop-color="#F7A9BC"/><stop offset=".96" stop-color="#F79CB2"/></linearGradient><linearGradient id="d" x1="169.09" y1="145.087" x2="169.637" y2="159.636" gradientUnits="userSpaceOnUse"><stop stop-color="#27BFF0"/><stop offset=".12" stop-color="#179EDD"/><stop offset=".22" stop-color="#0E8AD0"/><stop offset=".29" stop-color="#0A83CC"/><stop offset=".46" stop-color="#097EC6"/><stop offset=".68" stop-color="#086FB6"/><stop offset=".92" stop-color="#05579B"/><stop offset=".93" stop-color="#05569A"/></linearGradient><linearGradient id="e" x1="201.519" y1="149.863" x2="171.322" y2="153.472" gradientUnits="userSpaceOnUse"><stop offset=".2" stop-color="#C5AAEF"/><stop offset=".47" stop-color="#BAA1EE"/><stop offset=".94" stop-color="#9B89ED"/><stop offset=".97" stop-color="#9A88ED"/></linearGradient><linearGradient id="f" x1="50027" y1="82663.7" x2="74823.5" y2="139776" gradientUnits="userSpaceOnUse"><stop stop-color="#27BFF0"/><stop offset=".12" stop-color="#179EDD"/><stop offset=".22" stop-color="#0E8AD0"/><stop offset=".29" stop-color="#0A83CC"/><stop offset=".46" stop-color="#097EC6"/><stop offset=".68" stop-color="#086FB6"/><stop offset=".92" stop-color="#05579B"/><stop offset=".93" stop-color="#05569A"/></linearGradient><linearGradient id="g" x1="10064.4" y1="6490.37" x2="10763.8" y2="6490.37" gradientUnits="userSpaceOnUse"><stop offset=".19" stop-color="#8ADEFF"/><stop offset=".99" stop-color="#7CC8E6"/></linearGradient><linearGradient id="h" x1="1732.06" y1="8601.32" x2="1771.41" y2="8601.32" gradientUnits="userSpaceOnUse"><stop stop-color="#27BFF0"/><stop offset=".12" stop-color="#179EDD"/><stop offset=".22" stop-color="#0E8AD0"/><stop offset=".29" stop-color="#0A83CC"/><stop offset=".46" stop-color="#097EC6"/><stop offset=".68" stop-color="#086FB6"/><stop offset=".92" stop-color="#05579B"/><stop offset=".93" stop-color="#05569A"/></linearGradient><linearGradient id="i" x1="1777.35" y1="7235.02" x2="1815.08" y2="7235.02" gradientUnits="userSpaceOnUse"><stop stop-color="#27BFF0"/><stop offset=".12" stop-color="#179EDD"/><stop offset=".22" stop-color="#0E8AD0"/><stop offset=".29" stop-color="#0A83CC"/><stop offset=".46" stop-color="#097EC6"/><stop offset=".68" stop-color="#086FB6"/><stop offset=".92" stop-color="#05579B"/><stop offset=".93" stop-color="#05569A"/></linearGradient><linearGradient id="j" x1="1632.59" y1="3905.17" x2="1661.15" y2="3905.17" gradientUnits="userSpaceOnUse"><stop stop-color="#27BFF0"/><stop offset=".12" stop-color="#179EDD"/><stop offset=".22" stop-color="#0E8AD0"/><stop offset=".29" stop-color="#0A83CC"/><stop offset=".46" stop-color="#097EC6"/><stop offset=".68" stop-color="#086FB6"/><stop offset=".92" stop-color="#05579B"/><stop offset=".93" stop-color="#05569A"/></linearGradient><linearGradient id="k" x1="9666" y1="13708.3" x2="8660.84" y2="14852.2" gradientUnits="userSpaceOnUse"><stop stop-color="#27BFF0"/><stop offset=".12" stop-color="#179EDD"/><stop offset=".22" stop-color="#0E8AD0"/><stop offset=".29" stop-color="#0A83CC"/><stop offset=".46" stop-color="#097EC6"/><stop offset=".68" stop-color="#086FB6"/><stop offset=".92" stop-color="#05579B"/><stop offset=".93" stop-color="#05569A"/></linearGradient><linearGradient id="l" x1="37.522" y1="116.91" x2="63.275" y2="128.862" gradientUnits="userSpaceOnUse"><stop offset=".41" stop-color="#C5AAEF"/><stop offset=".57" stop-color="#BFA6EF"/><stop offset=".77" stop-color="#B099EE"/><stop offset=".97" stop-color="#9A88ED"/></linearGradient><linearGradient id="m" x1="27047.3" y1="16638.7" x2="29552.2" y2="16638.7" gradientUnits="userSpaceOnUse"><stop offset=".19" stop-color="#8ADEFF"/><stop offset=".99" stop-color="#7CC8E6"/></linearGradient><linearGradient id="n" x1="112.543" y1="214.723" x2="112.543" y2="198.401" gradientUnits="userSpaceOnUse"><stop stop-color="#8ADEFF"/><stop offset=".72" stop-color="#58BFE8"/></linearGradient><linearGradient id="o" x1="19903" y1="19860.9" x2="22539" y2="19860.9" gradientUnits="userSpaceOnUse"><stop offset=".19" stop-color="#8ADEFF"/><stop offset=".99" stop-color="#7CC8E6"/></linearGradient><linearGradient id="p" x1="49508.1" y1="69969.7" x2="49508.1" y2="33844.1" gradientUnits="userSpaceOnUse"><stop stop-color="#27BFF0"/><stop offset=".12" stop-color="#179EDD"/><stop offset=".22" stop-color="#0E8AD0"/><stop offset=".29" stop-color="#0A83CC"/><stop offset=".46" stop-color="#097EC6"/><stop offset=".68" stop-color="#086FB6"/><stop offset=".92" stop-color="#05579B"/><stop offset=".93" stop-color="#05569A"/></linearGradient><linearGradient id="q" x1="689.759" y1="1036.89" x2="689.759" y2="1029.55" gradientUnits="userSpaceOnUse"><stop stop-color="#27BFF0"/><stop offset=".12" stop-color="#179EDD"/><stop offset=".22" stop-color="#0E8AD0"/><stop offset=".29" stop-color="#0A83CC"/><stop offset=".46" stop-color="#097EC6"/><stop offset=".68" stop-color="#086FB6"/><stop offset=".92" stop-color="#05579B"/><stop offset=".93" stop-color="#05569A"/></linearGradient><linearGradient id="r" x1="123.865" y1="50.216" x2="131.209" y2="51.384" gradientUnits="userSpaceOnUse"><stop offset=".13" stop-color="#B682FF"/><stop offset=".17" stop-color="#AA74F6"/><stop offset=".23" stop-color="#985EE9"/><stop offset=".3" stop-color="#8D51E1"/><stop offset=".36" stop-color="#894DDE"/><stop offset=".42" stop-color="#8148D0"/><stop offset=".51" stop-color="#7944C3"/><stop offset=".59" stop-color="#7642BF"/><stop offset=".65" stop-color="#6E3DB1"/><stop offset=".74" stop-color="#6639A4"/><stop offset=".83" stop-color="#6337A0"/></linearGradient><linearGradient id="s" x1="131.256" y1="71.79" x2="114.567" y2="52.365" gradientUnits="userSpaceOnUse"><stop offset=".12" stop-color="#0A83CC"/><stop offset=".28" stop-color="#097EC6"/><stop offset=".5" stop-color="#086FB6"/><stop offset=".74" stop-color="#05569A"/></linearGradient><linearGradient id="t" x1="27676.7" y1="14658.5" x2="25352.9" y2="11499.3" gradientUnits="userSpaceOnUse"><stop offset=".12" stop-color="#0A83CC"/><stop offset=".28" stop-color="#097EC6"/><stop offset=".5" stop-color="#086FB6"/><stop offset=".74" stop-color="#05569A"/></linearGradient><linearGradient id="u" x1="105.391" y1="68.481" x2="139.093" y2="68.481" gradientUnits="userSpaceOnUse"><stop offset=".11" stop-color="#894DDE"/><stop offset=".16" stop-color="#8148D0"/><stop offset=".23" stop-color="#7944C3"/><stop offset=".29" stop-color="#7642BF"/><stop offset=".39" stop-color="#6E3DB1"/><stop offset=".52" stop-color="#6639A4"/><stop offset=".65" stop-color="#6337A0"/></linearGradient><linearGradient id="v" x1="105.46" y1="72.247" x2="130.53" y2="74.41" gradientUnits="userSpaceOnUse"><stop offset=".06" stop-color="#fff"/><stop offset=".14" stop-color="#D9C8F5"/><stop offset=".18" stop-color="#C5AAEF"/><stop offset=".25" stop-color="#C9B1EF"/><stop offset=".36" stop-color="#D6C6EF"/><stop offset=".42" stop-color="#C3B3EE"/><stop offset=".5" stop-color="#B1A0EE"/><stop offset=".6" stop-color="#A492ED"/><stop offset=".73" stop-color="#9C8AED"/><stop offset=".97" stop-color="#9A88ED"/></linearGradient><linearGradient id="w" x1="132.304" y1="74.618" x2="141.727" y2="76.853" gradientUnits="userSpaceOnUse"><stop offset=".46" stop-color="#F7C1CE"/><stop offset=".77" stop-color="#F7A9BC"/><stop offset="1" stop-color="#F79CB2"/></linearGradient><radialGradient id="x" cx="0" cy="0" r="1" gradientUnits="userSpaceOnUse" gradientTransform="matrix(17.448 0 0 22.8367 83.624 221.815)"><stop offset=".09" stop-color="#fff"/><stop offset="1" stop-color="#fff"/></radialGradient></defs></svg>