<svg width="214" height="42" fill="none" xmlns="http://www.w3.org/2000/svg"><path fill-rule="evenodd" clip-rule="evenodd" d="M48.497 42 24.25 0 0 42h48.497ZM12.305 21.105 24.25 41.79l11.943-20.686H12.305Z" fill="url(#a)"/><path d="M59.17 29.469V12.775h3.108l7.675 5.417h.116l7.676-5.417h3.107V29.47h-3.71V17.445l-5.264 3.549v8.475h-3.71v-8.475l-5.287-3.55V29.47h-3.71ZM89.877 29.585c-2.072 0-3.687-.513-4.847-1.54-1.16-1.043-1.739-2.569-1.739-4.577 0-2.023.58-3.548 1.74-4.576 1.159-1.042 2.774-1.564 4.846-1.564h5.797c1.36 0 2.396.327 3.107.98.727.639 1.09 1.557 1.09 2.756 0 2.443-1.399 3.665-4.197 3.665h-8.765c.324 1.448 1.314 2.171 2.968 2.171h9.391v2.685h-9.391Zm0-9.572c-1.593 0-2.574.677-2.945 2.031h8.58c.309 0 .548-.093.718-.28.186-.187.279-.444.279-.77 0-.654-.333-.981-.997-.981h-5.635ZM108.629 29.469c-1.345 0-2.334-.335-2.968-1.004-.634-.685-.951-1.58-.951-2.685v-5.65h-3.455v-2.685h3.455v-3.689h3.363v3.689h4.962v2.685h-4.962v5.23c0 .949.463 1.424 1.391 1.424h4.22v2.685h-5.055ZM118.59 29.469c-1.253 0-2.211-.32-2.876-.958-.664-.638-.997-1.548-.997-2.731 0-1.168.333-2.07.997-2.709.665-.638 1.623-.957 2.876-.957h8.904v-.56c0-.95-.464-1.424-1.391-1.424h-9.832v-2.685h10.713c1.407 0 2.404.327 2.991.98.588.639.881 1.541.881 2.709v8.335H118.59Zm.603-2.685h8.301v-1.985h-8.301c-.294 0-.526.094-.696.28-.155.172-.232.405-.232.7 0 .297.077.538.232.724.17.187.402.28.696.28ZM133.763 29.469V12.775h13.89c1.716 0 3.046.436 3.989 1.308.958.871 1.438 2.194 1.438 3.969 0 1.774-.48 3.097-1.438 3.969-.943.871-2.273 1.307-3.989 1.307h-10.179v6.14h-3.711Zm13.45-13.658h-9.739v4.459l9.739.023c.68 0 1.198-.171 1.553-.513.371-.343.557-.919.557-1.728 0-.825-.186-1.4-.557-1.728-.355-.342-.873-.513-1.553-.513ZM155.042 29.469V17.445h9.136c1.345 0 2.334.342 2.968 1.027.634.67.951 1.557.951 2.662v2.498h-3.409v-2.078c0-.934-.464-1.4-1.391-1.4h-4.847v9.315h-3.408ZM169.942 29.469V17.445h3.362v12.024h-3.362Zm-.023-14.009v-2.638h3.409v2.638h-3.409ZM175.853 29.469V17.445h15.466c1.361 0 2.358.342 2.992 1.027.633.67.95 1.557.95 2.662v8.335h-3.362v-7.915c0-.95-.479-1.424-1.438-1.424h-3.223v9.339h-3.362v-9.34h-4.661v9.34h-3.362ZM203.827 29.585c-2.072 0-3.687-.513-4.847-1.54-1.159-1.043-1.739-2.569-1.739-4.577 0-2.023.58-3.548 1.739-4.576 1.16-1.042 2.775-1.564 4.847-1.564h5.797c1.36 0 2.396.327 3.107.98.727.639 1.09 1.557 1.09 2.756 0 2.443-1.399 3.665-4.197 3.665h-8.765c.324 1.448 1.314 2.171 2.968 2.171h9.391v2.685h-9.391Zm0-9.572c-1.592 0-2.574.677-2.945 2.031h8.58c.309 0 .548-.093.718-.28.186-.187.279-.444.279-.77 0-.654-.333-.981-.997-.981h-5.635Z" fill="#CECECE"/><defs><radialGradient id="a" cx="0" cy="0" r="1" gradientUnits="userSpaceOnUse" gradientTransform="rotate(90.643 -3.081 27.706) scale(30.3368 24.3548)"><stop offset=".422" stop-color="#13EEC7"/><stop offset=".615" stop-color="#6AFF0F"/><stop offset="1" stop-color="#FAFF05"/></radialGradient></defs></svg>